<?xml version="1.0" encoding="UTF-8" standalone="no"?>
<!-- Created with Inkscape (http://www.inkscape.org/) -->

<svg
   width="112.20979mm"
   height="28.375158mm"
   viewBox="0 0 112.20979 28.375158"
   version="1.1"
   id="svg5"
   xmlns="http://www.w3.org/2000/svg"
   xmlns:svg="http://www.w3.org/2000/svg">
  <defs
     id="defs2" />
  <g
     id="layer1"
     transform="translate(-26.031712,-165.58921)">
    <g
       id="layer1-1"
       transform="translate(14.57981,31.903147)">
      <text
         xml:space="preserve"
         style="font-style:normal;font-variant:normal;font-weight:bold;font-stretch:normal;font-size:11.2889px;line-height:1.25;font-family:'Inter 18pt';-inkscape-font-specification:'Inter 18pt Bold';stroke-width:0.264583"
         x="31.903946"
         y="161.93996"
         id="text7362"><tspan
           id="tspan7360"
           style="font-style:normal;font-variant:normal;font-weight:bold;font-stretch:normal;font-size:11.2889px;font-family:'Inter 18pt';-inkscape-font-specification:'Inter 18pt Bold';stroke-width:0.264583"
           x="31.903946"
           y="161.93996"><tspan
   style="font-size:11.2889px;fill:#ffffff;fill-opacity:1"
   id="tspan14292">Element </tspan> <tspan
   style="font-size:11.2889px;fill:#6cc24a;fill-opacity:1"
   id="tspan15886">84</tspan></tspan></text>
      <g
         id="g20112"
         transform="matrix(0.26458333,0,0,0.26458333,11.187319,132.17794)">
        <path
           class="st2"
           d="M 81,66.1 V 9.9 h 39.6 V 22.2 H 96.3 v 9.7 h 21.9 V 44.2 H 96.3 v 22 H 81 Z m 45.4,0 V 23.9 h 15.2 V 66.1 Z M 134,19.5 c -2.1,0 -3.8,-0.7 -5.3,-2 -1.5,-1.4 -2.2,-3 -2.2,-4.9 0,-1.9 0.7,-3.5 2.2,-4.9 1.5,-1.4 3.2,-2 5.3,-2 2.1,0 3.8,0.7 5.3,2 1.5,1.4 2.2,3 2.2,4.9 0,1.9 -0.7,3.5 -2.2,4.9 -1.5,1.4 -3.2,2 -5.3,2 z M 164.5,9.9 V 66.2 H 149.3 V 9.9 Z m 7.7,56.2 V 23.9 h 14.4 v 8 h 0.4 c 0.9,-2.6 2.4,-4.7 4.5,-6.3 2.1,-1.5 4.7,-2.3 7.6,-2.3 3,0 5.5,0.8 7.7,2.4 2.1,1.6 3.4,3.6 3.9,6.2 h 0.4 c 0.7,-2.6 2.2,-4.7 4.6,-6.2 2.3,-1.6 5.1,-2.4 8.2,-2.4 4,0 7.3,1.3 9.8,3.9 2.5,2.6 3.8,6.1 3.8,10.4 V 66.1 H 222.3 V 41.5 c 0,-1.9 -0.5,-3.3 -1.4,-4.3 -0.9,-1.1 -2.2,-1.6 -3.8,-1.6 -1.6,0 -2.8,0.5 -3.7,1.6 -0.9,1 -1.3,2.5 -1.3,4.3 V 66.1 H 197.6 V 41.5 c 0,-1.9 -0.5,-3.3 -1.4,-4.3 -0.9,-1.1 -2.2,-1.6 -3.8,-1.6 -1,0 -1.9,0.2 -2.7,0.7 -0.8,0.5 -1.3,1.2 -1.8,2.1 -0.4,0.9 -0.6,1.9 -0.6,3.2 v 24.6 h -15.1 z m 94.2,0 H 244.7 V 9.9 h 21.4 c 5.8,0 10.8,1.1 15,3.4 4.2,2.2 7.5,5.5 9.8,9.7 2.3,4.2 3.5,9.2 3.5,15.1 0,5.9 -1.1,10.9 -3.4,15.1 -2.3,4.2 -5.5,7.4 -9.7,9.7 -4.2,2.1 -9.2,3.2 -14.9,3.2 z m -6.3,-12.9 h 5.8 c 2.8,0 5.2,-0.4 7.1,-1.3 2,-0.9 3.5,-2.4 4.5,-4.6 1,-2.2 1.6,-5.3 1.6,-9.2 0,-3.9 -0.5,-7 -1.6,-9.2 -1,-2.2 -2.6,-3.7 -4.6,-4.6 -2,-0.9 -4.5,-1.3 -7.4,-1.3 h -5.4 z m 41.7,12.9 V 23.9 h 14.7 v 8 h 0.4 c 0.8,-3 2,-5.1 3.7,-6.5 1.7,-1.4 3.7,-2.1 5.9,-2.1 0.7,0 1.3,0.1 2,0.2 0.7,0.1 1.3,0.2 1.9,0.4 v 12.9 c -0.8,-0.3 -1.7,-0.4 -2.8,-0.6 -1.1,-0.1 -2,-0.2 -2.8,-0.2 -1.5,0 -2.8,0.3 -4,1 -1.2,0.7 -2.1,1.6 -2.8,2.8 -0.7,1.2 -1,2.6 -1,4.2 v 22 h -15.2 z m 51.4,0.8 c -4.6,0 -8.5,-0.9 -11.8,-2.7 -3.3,-1.8 -5.8,-4.4 -7.5,-7.6 -1.7,-3.3 -2.6,-7.1 -2.6,-11.4 0,-4.3 0.9,-8.1 2.6,-11.4 1.7,-3.3 4.2,-5.8 7.5,-7.6 3.3,-1.8 7.2,-2.7 11.8,-2.7 4.6,0 8.5,0.9 11.8,2.7 3.3,1.8 5.8,4.4 7.5,7.6 1.7,3.3 2.6,7.1 2.6,11.4 0,4.3 -0.9,8.1 -2.6,11.4 -1.7,3.3 -4.2,5.8 -7.5,7.6 -3.3,1.8 -7.2,2.7 -11.8,2.7 z m 0.1,-11.2 c 1.3,0 2.4,-0.4 3.3,-1.3 0.9,-0.9 1.7,-2.1 2.2,-3.7 0.5,-1.6 0.8,-3.5 0.8,-5.7 0,-2.2 -0.3,-4.1 -0.8,-5.7 -0.5,-1.6 -1.2,-2.8 -2.2,-3.7 -0.9,-0.9 -2,-1.3 -3.3,-1.3 -1.4,0 -2.5,0.4 -3.5,1.3 -1,0.9 -1.7,2.1 -2.2,3.7 -0.5,1.6 -0.8,3.5 -0.8,5.7 0,2.2 0.3,4.1 0.8,5.7 0.5,1.6 1.3,2.8 2.2,3.7 1,0.9 2.2,1.3 3.5,1.3 z m 28,26.3 V 24 h 15.1 v 7.4 h 0.3 c 0.5,-1.4 1.4,-2.7 2.4,-3.9 1.1,-1.2 2.4,-2.2 4,-2.9 1.6,-0.7 3.4,-1.1 5.5,-1.1 2.8,0 5.4,0.7 7.9,2.2 2.5,1.5 4.6,3.8 6.2,7 1.6,3.2 2.4,7.3 2.4,12.4 0,4.9 -0.8,8.9 -2.3,12.1 -1.5,3.2 -3.5,5.6 -6,7.2 -2.5,1.6 -5.3,2.4 -8.3,2.4 -2,0 -3.7,-0.3 -5.3,-1 -1.5,-0.7 -2.9,-1.5 -4,-2.7 -1.1,-1.1 -1.9,-2.4 -2.5,-3.8 h -0.2 V 82 Z m 14.8,-37 c 0,2.1 0.3,3.8 0.8,5.3 0.5,1.5 1.3,2.6 2.3,3.5 1,0.8 2.2,1.2 3.6,1.2 1.4,0 2.6,-0.4 3.5,-1.2 1,-0.8 1.7,-2 2.3,-3.4 0.5,-1.5 0.8,-3.3 0.8,-5.4 0,-2.1 -0.3,-3.9 -0.8,-5.4 -0.5,-1.5 -1.3,-2.6 -2.3,-3.4 -1,-0.8 -2.2,-1.2 -3.5,-1.2 -1.4,0 -2.6,0.4 -3.6,1.2 -1,0.8 -1.8,1.9 -2.3,3.4 -0.5,1.6 -0.8,3.3 -0.8,5.4 z"
           id="path20106" />
        <path
           class="st2"
           d="m 1,9.6 h 56.6 v 17 H 17.9 V 66.2 H 1 Z"
           id="path20108" />
        <path
           class="st2"
           d="M 17.9,66.1 H 57.5 V 26.6 Z"
           id="path20110" />
      </g>
    </g>
  </g>
  <style
     type="text/css"
     id="style824">
	.st0{opacity:0.0;}
	.st1{fill:#212322;}
	.st2{fill:#FFFFFF;}
</style>
  <style
     type="text/css"
     id="style20104">
	.st2{fill:#FFFFFF;}
</style>
  <style
     type="text/css"
     id="style824-7">
	.st0{opacity:0.0;}
	.st1{fill:#212322;}
	.st2{fill:#000000;}
</style>
  <style
     type="text/css"
     id="style20104-0">
	.st2{fill:#000000;}
</style>
  <style
     type="text/css"
     id="style824-0">
	.st0{opacity:0.0;}
	.st1{fill:#212322;}
	.st2{fill:#FFFFFF;}
</style>
  <style
     type="text/css"
     id="style20104-3">
	.st2{fill:#FFFFFF;}
</style>
</svg>
