<?xml version="1.0" encoding="utf-8"?>
<!-- Generator: Adobe Illustrator 27.0.0, SVG Export Plug-In . SVG Version: 6.00 Build 0)  -->
<svg version="1.1" id="filmdrop-logo" xmlns="http://www.w3.org/2000/svg" xmlns:xlink="http://www.w3.org/1999/xlink" x="0px"
	 y="0px" viewBox="0 0 430 90" style="enable-background:new 0 0 430 90;" xml:space="preserve">
<style type="text/css">
	.st0{opacity:0.5;}
	.st1{fill:#212322;}
	.st2{fill:#FFFFFF;}
</style>
<g class="st0">
	<path class="st1" d="M84.7,69.6V13.3h39.6v12.3H100v9.7h21.9v12.3H100v22H84.7z M130.1,69.6V27.4h15.2v42.2H130.1z M137.7,23
		c-2.1,0-3.8-0.7-5.3-2c-1.5-1.4-2.2-3-2.2-4.9c0-1.9,0.7-3.5,2.2-4.9c1.5-1.4,3.2-2,5.3-2c2.1,0,3.8,0.7,5.3,2
		c1.5,1.4,2.2,3,2.2,4.9c0,1.9-0.7,3.5-2.2,4.9C141.5,22.3,139.8,23,137.7,23z M168.2,13.3v56.3H153V13.3H168.2z M175.9,69.6V27.4
		h14.4v8h0.4c0.9-2.6,2.4-4.7,4.5-6.3c2.1-1.5,4.7-2.3,7.6-2.3c3,0,5.5,0.8,7.7,2.4c2.1,1.6,3.4,3.6,3.9,6.2h0.4
		c0.7-2.6,2.2-4.7,4.6-6.2c2.3-1.6,5.1-2.4,8.2-2.4c4,0,7.3,1.3,9.8,3.9c2.5,2.6,3.8,6.1,3.8,10.4v28.5H226V45
		c0-1.9-0.5-3.3-1.4-4.3c-0.9-1.1-2.2-1.6-3.8-1.6c-1.6,0-2.8,0.5-3.7,1.6c-0.9,1-1.3,2.5-1.3,4.3v24.6h-14.5V45
		c0-1.9-0.5-3.3-1.4-4.3c-0.9-1.1-2.2-1.6-3.8-1.6c-1,0-1.9,0.2-2.7,0.7c-0.8,0.5-1.3,1.2-1.8,2.1c-0.4,0.9-0.6,1.9-0.6,3.2v24.6
		H175.9z M270.1,69.6h-21.7V13.3h21.4c5.8,0,10.8,1.1,15,3.4c4.2,2.2,7.5,5.5,9.8,9.7c2.3,4.2,3.5,9.2,3.5,15.1s-1.1,10.9-3.4,15.1
		c-2.3,4.2-5.5,7.4-9.7,9.7C280.8,68.5,275.8,69.6,270.1,69.6z M263.7,56.7h5.8c2.8,0,5.2-0.4,7.1-1.3c2-0.9,3.5-2.4,4.5-4.6
		c1-2.2,1.6-5.3,1.6-9.2c0-3.9-0.5-7-1.6-9.2c-1-2.2-2.6-3.7-4.6-4.6c-2-0.9-4.5-1.3-7.4-1.3h-5.4V56.7z M305.4,69.6V27.4h14.7v8
		h0.4c0.8-3,2-5.1,3.7-6.5c1.7-1.4,3.7-2.1,5.9-2.1c0.7,0,1.3,0.1,2,0.2c0.7,0.1,1.3,0.2,1.9,0.4v12.9c-0.8-0.3-1.7-0.4-2.8-0.6
		c-1.1-0.1-2-0.2-2.8-0.2c-1.5,0-2.8,0.3-4,1c-1.2,0.7-2.1,1.6-2.8,2.8c-0.7,1.2-1,2.6-1,4.2v22H305.4z M356.9,70.4
		c-4.6,0-8.5-0.9-11.8-2.7c-3.3-1.8-5.8-4.4-7.5-7.6c-1.7-3.3-2.6-7.1-2.6-11.4c0-4.3,0.9-8.1,2.6-11.4c1.7-3.3,4.2-5.8,7.5-7.6
		c3.3-1.8,7.2-2.7,11.8-2.7c4.6,0,8.5,0.9,11.8,2.7c3.3,1.8,5.8,4.4,7.5,7.6c1.7,3.3,2.6,7.1,2.6,11.4c0,4.3-0.9,8.1-2.6,11.4
		c-1.7,3.3-4.2,5.8-7.5,7.6C365.4,69.5,361.5,70.4,356.9,70.4z M357,59.2c1.3,0,2.4-0.4,3.3-1.3c0.9-0.9,1.7-2.1,2.2-3.7
		c0.5-1.6,0.8-3.5,0.8-5.7c0-2.2-0.3-4.1-0.8-5.7c-0.5-1.6-1.2-2.8-2.2-3.7c-0.9-0.9-2-1.3-3.3-1.3c-1.4,0-2.5,0.4-3.5,1.3
		c-1,0.9-1.7,2.1-2.2,3.7c-0.5,1.6-0.8,3.5-0.8,5.7c0,2.2,0.3,4.1,0.8,5.7c0.5,1.6,1.3,2.8,2.2,3.7C354.5,58.7,355.7,59.2,357,59.2z
		 M384.9,85.5v-58H400v7.4h0.3c0.5-1.4,1.4-2.7,2.4-3.9c1.1-1.2,2.4-2.2,4-2.9c1.6-0.7,3.4-1.1,5.5-1.1c2.8,0,5.4,0.7,7.9,2.2
		c2.5,1.5,4.6,3.8,6.2,7c1.6,3.2,2.4,7.3,2.4,12.4c0,4.9-0.8,8.9-2.3,12.1c-1.5,3.2-3.5,5.6-6,7.2c-2.5,1.6-5.3,2.4-8.3,2.4
		c-2,0-3.7-0.3-5.3-1c-1.5-0.7-2.9-1.5-4-2.7c-1.1-1.1-1.9-2.4-2.5-3.8h-0.2v22.8H384.9z M399.8,48.5c0,2.1,0.3,3.8,0.8,5.3
		c0.5,1.5,1.3,2.6,2.3,3.5c1,0.8,2.2,1.2,3.6,1.2c1.4,0,2.6-0.4,3.5-1.2c1-0.8,1.7-2,2.3-3.4c0.5-1.5,0.8-3.3,0.8-5.4
		c0-2.1-0.3-3.9-0.8-5.4c-0.5-1.5-1.3-2.6-2.3-3.4c-1-0.8-2.2-1.2-3.5-1.2c-1.4,0-2.6,0.4-3.6,1.2c-1,0.8-1.8,1.9-2.3,3.4
		C400.1,44.6,399.8,46.4,399.8,48.5z"/>
	<path class="st1" d="M4.6,13.1h56.6v17H21.6v39.6h-17V13.1z"/>
	<path class="st1" d="M21.6,69.6h39.6V30L21.6,69.6z"/>
</g>
<g>
	<path class="st2" d="M81,66.1V9.9h39.6v12.3H96.3v9.7h21.9v12.3H96.3v22H81z M126.4,66.1V23.9h15.2v42.2H126.4z M134,19.5
		c-2.1,0-3.8-0.7-5.3-2c-1.5-1.4-2.2-3-2.2-4.9c0-1.9,0.7-3.5,2.2-4.9c1.5-1.4,3.2-2,5.3-2c2.1,0,3.8,0.7,5.3,2
		c1.5,1.4,2.2,3,2.2,4.9c0,1.9-0.7,3.5-2.2,4.9C137.8,18.9,136.1,19.5,134,19.5z M164.5,9.9v56.3h-15.2V9.9H164.5z M172.2,66.1V23.9
		h14.4v8h0.4c0.9-2.6,2.4-4.7,4.5-6.3c2.1-1.5,4.7-2.3,7.6-2.3c3,0,5.5,0.8,7.7,2.4c2.1,1.6,3.4,3.6,3.9,6.2h0.4
		c0.7-2.6,2.2-4.7,4.6-6.2c2.3-1.6,5.1-2.4,8.2-2.4c4,0,7.3,1.3,9.8,3.9c2.5,2.6,3.8,6.1,3.8,10.4v28.5h-15.2V41.5
		c0-1.9-0.5-3.3-1.4-4.3c-0.9-1.1-2.2-1.6-3.8-1.6c-1.6,0-2.8,0.5-3.7,1.6c-0.9,1-1.3,2.5-1.3,4.3v24.6h-14.5V41.5
		c0-1.9-0.5-3.3-1.4-4.3c-0.9-1.1-2.2-1.6-3.8-1.6c-1,0-1.9,0.2-2.7,0.7c-0.8,0.5-1.3,1.2-1.8,2.1c-0.4,0.9-0.6,1.9-0.6,3.2v24.6
		H172.2z M266.4,66.1h-21.7V9.9h21.4c5.8,0,10.8,1.1,15,3.4c4.2,2.2,7.5,5.5,9.8,9.7c2.3,4.2,3.5,9.2,3.5,15.1s-1.1,10.9-3.4,15.1
		c-2.3,4.2-5.5,7.4-9.7,9.7C277.1,65,272.1,66.1,266.4,66.1z M260.1,53.2h5.8c2.8,0,5.2-0.4,7.1-1.3c2-0.9,3.5-2.4,4.5-4.6
		c1-2.2,1.6-5.3,1.6-9.2s-0.5-7-1.6-9.2c-1-2.2-2.6-3.7-4.6-4.6c-2-0.9-4.5-1.3-7.4-1.3h-5.4V53.2z M301.8,66.1V23.9h14.7v8h0.4
		c0.8-3,2-5.1,3.7-6.5c1.7-1.4,3.7-2.1,5.9-2.1c0.7,0,1.3,0.1,2,0.2c0.7,0.1,1.3,0.2,1.9,0.4v12.9c-0.8-0.3-1.7-0.4-2.8-0.6
		c-1.1-0.1-2-0.2-2.8-0.2c-1.5,0-2.8,0.3-4,1c-1.2,0.7-2.1,1.6-2.8,2.8c-0.7,1.2-1,2.6-1,4.2v22H301.8z M353.2,66.9
		c-4.6,0-8.5-0.9-11.8-2.7c-3.3-1.8-5.8-4.4-7.5-7.6c-1.7-3.3-2.6-7.1-2.6-11.4c0-4.3,0.9-8.1,2.6-11.4c1.7-3.3,4.2-5.8,7.5-7.6
		c3.3-1.8,7.2-2.7,11.8-2.7c4.6,0,8.5,0.9,11.8,2.7c3.3,1.8,5.8,4.4,7.5,7.6c1.7,3.3,2.6,7.1,2.6,11.4c0,4.3-0.9,8.1-2.6,11.4
		c-1.7,3.3-4.2,5.8-7.5,7.6C361.7,66,357.8,66.9,353.2,66.9z M353.3,55.7c1.3,0,2.4-0.4,3.3-1.3c0.9-0.9,1.7-2.1,2.2-3.7
		c0.5-1.6,0.8-3.5,0.8-5.7c0-2.2-0.3-4.1-0.8-5.7c-0.5-1.6-1.2-2.8-2.2-3.7c-0.9-0.9-2-1.3-3.3-1.3c-1.4,0-2.5,0.4-3.5,1.3
		c-1,0.9-1.7,2.1-2.2,3.7c-0.5,1.6-0.8,3.5-0.8,5.7c0,2.2,0.3,4.1,0.8,5.7c0.5,1.6,1.3,2.8,2.2,3.7C350.8,55.3,352,55.7,353.3,55.7z
		 M381.3,82v-58h15.1v7.4h0.3c0.5-1.4,1.4-2.7,2.4-3.9c1.1-1.2,2.4-2.2,4-2.9c1.6-0.7,3.4-1.1,5.5-1.1c2.8,0,5.4,0.7,7.9,2.2
		c2.5,1.5,4.6,3.8,6.2,7c1.6,3.2,2.4,7.3,2.4,12.4c0,4.9-0.8,8.9-2.3,12.1c-1.5,3.2-3.5,5.6-6,7.2c-2.5,1.6-5.3,2.4-8.3,2.4
		c-2,0-3.7-0.3-5.3-1c-1.5-0.7-2.9-1.5-4-2.7c-1.1-1.1-1.9-2.4-2.5-3.8h-0.2V82H381.3z M396.1,45c0,2.1,0.3,3.8,0.8,5.3
		c0.5,1.5,1.3,2.6,2.3,3.5c1,0.8,2.2,1.2,3.6,1.2c1.4,0,2.6-0.4,3.5-1.2c1-0.8,1.7-2,2.3-3.4c0.5-1.5,0.8-3.3,0.8-5.4
		c0-2.1-0.3-3.9-0.8-5.4c-0.5-1.5-1.3-2.6-2.3-3.4c-1-0.8-2.2-1.2-3.5-1.2c-1.4,0-2.6,0.4-3.6,1.2c-1,0.8-1.8,1.9-2.3,3.4
		C396.4,41.2,396.1,42.9,396.1,45z"/>
	<path class="st2" d="M1,9.6h56.6v17H17.9v39.6H1V9.6z"/>
	<path class="st2" d="M17.9,66.1h39.6V26.6L17.9,66.1z"/>
</g>
</svg>
